<svg width="100" height="98" viewBox="0 0 100 98" fill="none" xmlns="http://www.w3.org/2000/svg">
<path fill-rule="evenodd" clip-rule="evenodd" d="M22.9319 6.30447H67.8734V0H16.3794V41.9825H22.9319V27.9005H33.8369V21.5957H22.9319V6.30447ZM45.0288 10.6789H38.6673V47.4127H45.0288V10.6789ZM56.507 47.4127H50.1459V20.9457H56.507V47.4127ZM56.507 16.4149H50.1459V10.6789H56.507V16.4149ZM20.2131 78.8056C22.4769 76.6609 23.6092 74.0421 23.6092 70.9489C23.6092 67.6048 22.7481 65.2466 21.0267 63.8739C19.3046 62.5016 18.0688 61.6575 17.3196 61.3417C16.5704 61.0263 15.3266 60.5764 13.589 59.993C11.8507 59.4091 10.5757 58.7935 9.76284 58.1473C8.94999 57.5007 8.54318 56.6089 8.54318 55.4729C8.54318 54.4004 8.86147 53.5171 9.49992 52.8224C10.1372 52.1284 10.9829 51.7812 12.0345 51.7812C13.1182 51.7812 14.0512 52.1213 14.8324 52.8004C15.6133 53.4805 16.0046 54.3571 16.0046 55.4311H22.7481C22.7481 52.6817 21.7198 50.3354 19.6632 48.3919C17.6066 46.4485 15.1914 45.4768 12.4176 45.4768C9.51574 45.4768 7.05233 46.4313 5.02773 48.34C3.00239 50.2495 1.99028 52.6077 1.99028 55.4158C1.99028 56.6149 2.24528 57.8296 2.75604 59.0597C3.26568 60.2909 3.93539 61.332 4.76482 62.1839C5.59349 63.0354 6.43045 63.6592 7.27569 64.0531C8.12018 64.4473 9.42835 64.9285 11.1976 65.497C12.9675 66.0648 14.3857 66.7514 15.4543 67.5559C16.5225 68.36 17.0567 69.6143 17.0567 71.3177C17.0567 72.5799 16.602 73.6292 15.6935 74.4655C14.785 75.3021 13.7088 75.7194 12.4651 75.7194C11.0616 75.7194 9.88977 75.3289 8.94999 74.5472C8.00869 73.7655 7.53898 72.7027 7.53898 71.3584H0.699434C0.699434 74.3789 1.83095 76.9121 4.0951 78.9568C6.35888 81.0018 9.037 82.0239 12.1306 82.0239C15.255 82.0239 17.949 80.9514 20.2131 78.8056ZM27.5785 32.6244H33.9397V70.9511H27.5785V32.6244ZM27.5785 75.4824H33.9397V81.2183H27.5785V75.4824ZM75.1597 32.4542C77.4235 32.4542 79.3046 31.6986 80.8033 30.1859C82.3021 28.6737 83.0517 26.8146 83.0517 24.6091C83.0517 22.498 82.31 20.6788 80.8278 19.1509C79.3445 17.6229 77.5346 16.8584 75.3989 16.8584C73.1991 16.8584 71.3489 17.6151 69.8509 19.127C68.351 20.6396 67.603 22.4823 67.603 24.6565C67.603 25.8541 67.8015 26.9329 68.2007 27.8938C68.5993 28.8551 69.388 29.8548 70.5681 30.8949C71.7475 31.9349 73.2779 32.4542 75.1597 32.4542ZM54.2708 75.8617C56.4517 75.8617 58.3124 75.0923 59.853 73.5531C61.3921 72.0139 62.1627 70.1765 62.1627 68.0404C62.1627 65.9047 61.377 64.0833 59.8052 62.5755C58.2322 61.0673 56.356 60.3136 54.1747 60.3136C52.1211 60.3136 50.3244 61.0673 48.785 62.5755C47.2448 64.0833 46.4749 65.8584 46.4749 67.8997C46.4749 70.0977 47.2207 71.9744 48.7126 73.5292C50.2043 75.0844 52.0575 75.8617 54.2708 75.8617ZM85.8017 15.0269C86.9652 16.2417 87.8579 17.6688 88.4798 19.3095C89.1021 20.9499 89.4125 22.7321 89.4125 24.6565C89.4125 28.4426 88.145 31.7158 85.6104 34.476C83.075 37.2363 79.8944 38.6164 76.0686 38.6164C74.3781 38.6164 72.8797 38.3275 71.5723 37.7507C70.2645 37.1732 69.1013 36.2455 68.0809 34.9662L68.0455 39.2324V81.2183H62.1627V77.6629C61.2064 79.0389 59.9219 80.1092 58.3124 80.8752C56.7022 81.6409 55.0203 82.0239 53.2666 82.0239C49.5673 82.0239 46.4507 80.6382 43.9161 77.8667C41.3812 75.0952 40.1137 71.8672 40.1137 68.1815C40.1137 64.3402 41.2795 61.033 43.6129 58.2615C45.946 55.4897 49.237 54.104 53.4877 54.104C55.0863 54.104 56.6039 54.4082 58.0416 55.0164C59.4793 55.6245 60.693 56.5051 61.6847 57.6594V54.4788H61.6241V10.8809H67.4591V14.9623C68.351 13.6352 69.5402 12.6478 71.0227 11.9997C72.5049 11.3528 74.0756 11.028 75.7341 11.028C77.6468 11.028 79.5117 11.3909 81.3291 12.117C83.1473 12.8427 84.6374 13.8122 85.8017 15.0269ZM93.007 65.2906C92.4966 63.7574 91.5873 62.5445 90.2807 61.6515C88.9733 60.7597 87.4745 60.3132 85.7851 60.3132C84.1899 60.3132 82.6836 60.7754 81.2651 61.6986C79.8462 62.6221 78.8974 63.8197 78.419 65.2906H93.007ZM99.4642 67.906C99.4642 68.3793 99.416 68.9154 99.3207 69.5138C99.2251 70.1122 99.1606 70.5692 99.129 70.8839H78.5147C78.9938 72.3868 79.8699 73.5919 81.1457 74.4998C82.4207 75.408 83.872 75.8612 85.4977 75.8612C88.0802 75.8612 90.0573 75.1195 91.4291 73.6333H98.5071C97.6777 75.9904 96.0441 77.9779 93.6052 79.5966C91.1655 81.2145 88.5424 82.0239 85.7369 82.0239C81.9111 82.0239 78.6262 80.6852 75.8848 78.0085C73.1415 75.3315 71.7712 72.0878 71.7712 68.2763C71.7712 64.3715 73.1257 61.0326 75.8366 58.2611C78.5459 55.4897 81.8783 54.1036 85.833 54.1036C89.5948 54.1036 92.8074 55.4747 95.4704 58.2167C98.132 60.9587 99.4642 64.1878 99.4642 67.906ZM0 97.5319C1.12386 97.844 2.04668 98 2.76847 98C3.90686 98 4.81999 97.7191 5.50787 97.1574C6.2006 96.5957 6.54696 95.8515 6.54696 94.9249C6.54696 94.272 6.36288 93.7127 5.99472 93.247C5.62656 92.7813 4.97743 92.2868 4.04734 91.7635L3.27711 91.3314C2.60861 90.9521 2.14841 90.6256 1.89651 90.352C1.64461 90.0783 1.51866 89.7638 1.51866 89.4086C1.51866 88.9861 1.69063 88.6356 2.03457 88.3571C2.37851 88.0787 2.81449 87.9394 3.34251 87.9394C3.89959 87.9394 4.74491 88.1603 5.87846 88.602V87.2193C4.95805 86.9456 4.08367 86.8088 3.25531 86.8088C2.32522 86.8088 1.55984 87.0753 0.959155 87.6082C0.358472 88.1363 0.0581306 88.8108 0.0581306 89.6318C0.0581306 90.2415 0.244633 90.7768 0.617637 91.2378C0.995486 91.6938 1.64219 92.1812 2.55775 92.6997L3.29891 93.1246C3.94319 93.4846 4.38402 93.8111 4.62138 94.104C4.86359 94.3968 4.9847 94.7521 4.9847 95.1698C4.9847 95.6787 4.80062 96.0892 4.43246 96.4013C4.06914 96.7133 3.58714 96.8694 2.98646 96.8694C2.20654 96.8694 1.21105 96.5909 0 96.034V97.5319ZM9.40989 96.4661C10.3206 97.4887 11.522 98 13.014 98C14.5787 98 15.8188 97.4959 16.7343 96.4877C17.6499 95.4747 18.1077 94.1064 18.1077 92.3828C18.1077 90.6928 17.6499 89.3413 16.7343 88.3283C15.8188 87.3153 14.6005 86.8088 13.0794 86.8088C11.5535 86.8088 10.3327 87.3177 9.41715 88.3355C8.50644 89.3485 8.05109 90.7024 8.05109 92.3972C8.05109 94.0824 8.50402 95.4387 9.40989 96.4661ZM15.5863 95.6955C14.9856 96.4781 14.1354 96.8694 13.0358 96.8694C11.9846 96.8694 11.1611 96.4709 10.5652 95.6739C9.96939 94.8769 9.67148 93.7823 9.67148 92.39C9.67148 90.9929 9.97182 89.9031 10.5725 89.1205C11.1732 88.3331 12.0088 87.9394 13.0794 87.9394C14.1451 87.9394 14.9783 88.3307 15.579 89.1133C16.1845 89.8959 16.4873 90.9809 16.4873 92.3684C16.4873 93.7991 16.1869 94.9081 15.5863 95.6955ZM38.5299 87.0753H37.0039V93.7871C37.0039 95.2226 37.3237 96.2836 37.9631 96.9702C38.6025 97.6567 39.5932 98 40.935 98C42.2526 98 43.2118 97.6687 43.8125 97.0062C44.418 96.3437 44.7208 95.285 44.7208 93.8303V87.0753H43.3838V93.8519C43.3838 94.9465 43.2045 95.7243 42.8461 96.1852C42.4924 96.6413 41.8893 96.8694 41.0367 96.8694C40.1648 96.8694 39.5278 96.6269 39.1257 96.142C38.7285 95.6523 38.5299 94.8721 38.5299 93.8015V87.0753ZM54.9038 97.7335V87.0753H56.4007L61.8141 95.3066V87.0753H63.122V97.7335H61.6324L56.2117 89.5022V97.7335H54.9038ZM73.967 87.0753V97.7335H77.5639C79.2787 97.7335 80.6084 97.2462 81.5531 96.2716C82.4977 95.297 82.97 93.9239 82.97 92.1523C82.97 90.6928 82.5897 89.5166 81.8292 88.6236C81.3496 88.0619 80.7804 87.6634 80.1216 87.4281C79.4676 87.1929 78.6078 87.0753 77.5421 87.0753H73.967ZM77.4476 96.6029H75.493V88.2059H76.75C77.7915 88.2059 78.5715 88.2875 79.0898 88.4507C79.6081 88.6092 80.0538 88.9069 80.4268 89.3438C81.042 90.0591 81.3496 91.0433 81.3496 92.2964C81.3496 93.6311 81.0372 94.6945 80.4123 95.4867C79.8309 96.2308 78.8427 96.6029 77.4476 96.6029ZM92.3922 97.7335V96.5237L98.1689 88.2059H92.7482V87.0753H100V88.2059L94.2233 96.5237H100V97.7335H92.3922Z" fill="url(#paint0_linear_1302_675)"/>
<defs>
<linearGradient id="paint0_linear_1302_675" x1="19.0347" y1="17.64" x2="96.1468" y2="8.76902" gradientUnits="userSpaceOnUse">
<stop stop-color="#6BD0FC"/>
<stop offset="1" stop-color="#7F52FA"/>
</linearGradient>
</defs>
</svg>
